<svg width="175" height="63" viewBox="0 0 175 63" fill="none" xmlns="http://www.w3.org/2000/svg">
<rect opacity="0.3" width="175" height="63" rx="5" fill="#D9D9D9"/>
<path d="M144.589 26.1392C143.846 26.1392 143.185 26.0116 142.605 25.7564C142.028 25.4979 141.573 25.1432 141.238 24.6925C140.906 24.2384 140.736 23.7147 140.726 23.1214H142.893C142.907 23.37 142.988 23.5888 143.137 23.7777C143.29 23.9633 143.492 24.1075 143.744 24.2102C143.996 24.313 144.279 24.3643 144.594 24.3643C144.922 24.3643 145.212 24.3063 145.464 24.1903C145.716 24.0743 145.913 23.9136 146.055 23.7081C146.198 23.5026 146.269 23.2656 146.269 22.9972C146.269 22.7254 146.193 22.4851 146.04 22.2763C145.891 22.0642 145.676 21.8984 145.394 21.7791C145.116 21.6598 144.784 21.6001 144.4 21.6001H143.45V20.0192H144.4C144.725 20.0192 145.011 19.9628 145.26 19.8501C145.512 19.7375 145.707 19.5817 145.847 19.3828C145.986 19.1806 146.055 18.9453 146.055 18.6768C146.055 18.4216 145.994 18.1979 145.871 18.0057C145.752 17.8101 145.583 17.6577 145.364 17.5483C145.149 17.4389 144.897 17.3842 144.609 17.3842C144.317 17.3842 144.05 17.4373 143.808 17.5433C143.566 17.6461 143.372 17.7936 143.227 17.9858C143.081 18.178 143.003 18.4034 142.993 18.6619H140.93C140.94 18.0753 141.107 17.5582 141.432 17.1108C141.757 16.6634 142.194 16.3137 142.744 16.0618C143.298 15.8066 143.923 15.679 144.619 15.679C145.321 15.679 145.936 15.8066 146.463 16.0618C146.99 16.317 147.399 16.6617 147.691 17.0959C147.986 17.5268 148.132 18.0107 148.129 18.5476C148.132 19.1177 147.955 19.5933 147.597 19.9744C147.242 20.3556 146.78 20.5975 146.21 20.7003V20.7798C146.959 20.8759 147.529 21.1361 147.92 21.5604C148.314 21.9813 148.51 22.5083 148.506 23.1413C148.51 23.7214 148.342 24.2367 148.004 24.6875C147.67 25.1383 147.207 25.4929 146.617 25.7514C146.027 26.0099 145.351 26.1392 144.589 26.1392ZM149.9 24.2102V22.5149L154.15 15.8182H155.612V18.1648H154.747L152.067 22.4055V22.4851H158.108V24.2102H149.9ZM154.787 26V23.6932L154.827 22.9425V15.8182H156.845V26H154.787Z" fill="black"/>
<path d="M145.255 34.8182V45H143.102V36.8615H143.043L140.711 38.3232V36.4141L143.232 34.8182H145.255ZM151.667 45.2237C150.812 45.2204 150.076 45.0099 149.46 44.5923C148.847 44.1747 148.374 43.5698 148.043 42.7777C147.715 41.9856 147.552 41.0327 147.556 39.919C147.556 38.8087 147.72 37.8625 148.048 37.0803C148.379 36.2981 148.852 35.7031 149.465 35.2955C150.081 34.8845 150.815 34.679 151.667 34.679C152.519 34.679 153.251 34.8845 153.865 35.2955C154.481 35.7064 154.955 36.303 155.286 37.0852C155.618 37.8641 155.782 38.8087 155.779 39.919C155.779 41.036 155.613 41.9905 155.281 42.7827C154.953 43.5748 154.483 44.1797 153.869 44.5973C153.256 45.0149 152.522 45.2237 151.667 45.2237ZM151.667 43.4389C152.25 43.4389 152.716 43.1456 153.064 42.5589C153.412 41.9723 153.584 41.0923 153.581 39.919C153.581 39.1468 153.502 38.5038 153.343 37.9901C153.187 37.4763 152.965 37.0902 152.676 36.8317C152.391 36.5732 152.055 36.4439 151.667 36.4439C151.087 36.4439 150.623 36.7339 150.275 37.3139C149.927 37.8939 149.751 38.7623 149.748 39.919C149.748 40.7012 149.826 41.3542 149.982 41.8778C150.141 42.3982 150.365 42.7893 150.653 43.0511C150.941 43.3097 151.279 43.4389 151.667 43.4389ZM161.306 45.2237C160.451 45.2204 159.715 45.0099 159.098 44.5923C158.485 44.1747 158.013 43.5698 157.681 42.7777C157.353 41.9856 157.191 41.0327 157.194 39.919C157.194 38.8087 157.358 37.8625 157.686 37.0803C158.018 36.2981 158.49 35.7031 159.103 35.2955C159.72 34.8845 160.454 34.679 161.306 34.679C162.158 34.679 162.89 34.8845 163.503 35.2955C164.12 35.7064 164.594 36.303 164.925 37.0852C165.257 37.8641 165.421 38.8087 165.417 39.919C165.417 41.036 165.252 41.9905 164.92 42.7827C164.592 43.5748 164.121 44.1797 163.508 44.5973C162.895 45.0149 162.161 45.2237 161.306 45.2237ZM161.306 43.4389C161.889 43.4389 162.355 43.1456 162.703 42.5589C163.051 41.9723 163.223 41.0923 163.22 39.919C163.22 39.1468 163.14 38.5038 162.981 37.9901C162.825 37.4763 162.603 37.0902 162.315 36.8317C162.03 36.5732 161.694 36.4439 161.306 36.4439C160.726 36.4439 160.262 36.7339 159.914 37.3139C159.566 37.8939 159.39 38.7623 159.387 39.919C159.387 40.7012 159.465 41.3542 159.62 41.8778C159.779 42.3982 160.003 42.7893 160.292 43.0511C160.58 43.3097 160.918 43.4389 161.306 43.4389Z" fill="#8AC540"/>
<path opacity="0.4" d="M10.8807 16.7273H11.7472V22.4517H11.8182L15.7955 16.7273H16.6477V24H15.767V18.2898H15.696L11.733 24H10.8807V16.7273ZM20.5123 24.1136C20.0009 24.1136 19.5605 23.9929 19.1912 23.7514C18.8219 23.5099 18.5378 23.1773 18.339 22.7536C18.1401 22.3298 18.0407 21.8456 18.0407 21.3011C18.0407 20.7472 18.1425 20.2583 18.3461 19.8345C18.552 19.4084 18.8385 19.0758 19.2054 18.8366C19.5748 18.5952 20.0056 18.4744 20.498 18.4744C20.8816 18.4744 21.2272 18.5455 21.535 18.6875C21.8427 18.8295 22.0949 19.0284 22.2914 19.2841C22.4879 19.5398 22.6098 19.8381 22.6571 20.179H21.8191C21.7551 19.9304 21.6131 19.7102 21.3929 19.5185C21.1751 19.3243 20.8816 19.2273 20.5123 19.2273C20.1855 19.2273 19.8991 19.3125 19.6529 19.483C19.409 19.651 19.2185 19.889 19.0811 20.1967C18.9462 20.5021 18.8787 20.8608 18.8787 21.2727C18.8787 21.6941 18.945 22.0611 19.0776 22.3736C19.2125 22.6861 19.4019 22.9287 19.6458 23.1016C19.892 23.2744 20.1808 23.3608 20.5123 23.3608C20.7301 23.3608 20.9277 23.3229 21.1053 23.2472C21.2828 23.1714 21.4332 23.0625 21.5563 22.9205C21.6794 22.7784 21.767 22.608 21.8191 22.4091H22.6571C22.6098 22.7311 22.4926 23.0211 22.3056 23.2791C22.1209 23.5348 21.8759 23.7384 21.5705 23.8899C21.2675 24.0391 20.9147 24.1136 20.5123 24.1136ZM23.8823 24V18.5455H28.1721V24H27.334V19.3267H24.7203V24H23.8823ZM31.9185 24.1136C31.4261 24.1136 30.994 23.9964 30.6223 23.7621C30.253 23.5277 29.9642 23.1998 29.7559 22.7784C29.5499 22.357 29.4469 21.8646 29.4469 21.3011C29.4469 20.733 29.5499 20.237 29.7559 19.8132C29.9642 19.3894 30.253 19.0604 30.6223 18.826C30.994 18.5916 31.4261 18.4744 31.9185 18.4744C32.4109 18.4744 32.8418 18.5916 33.2111 18.826C33.5828 19.0604 33.8716 19.3894 34.0776 19.8132C34.2859 20.237 34.3901 20.733 34.3901 21.3011C34.3901 21.8646 34.2859 22.357 34.0776 22.7784C33.8716 23.1998 33.5828 23.5277 33.2111 23.7621C32.8418 23.9964 32.4109 24.1136 31.9185 24.1136ZM31.9185 23.3608C32.2926 23.3608 32.6003 23.2649 32.8418 23.0732C33.0833 22.8814 33.262 22.6293 33.378 22.3168C33.494 22.0043 33.552 21.6657 33.552 21.3011C33.552 20.9366 33.494 20.5968 33.378 20.282C33.262 19.9671 33.0833 19.7126 32.8418 19.5185C32.6003 19.3243 32.2926 19.2273 31.9185 19.2273C31.5444 19.2273 31.2367 19.3243 30.9952 19.5185C30.7537 19.7126 30.575 19.9671 30.459 20.282C30.343 20.5968 30.285 20.9366 30.285 21.3011C30.285 21.6657 30.343 22.0043 30.459 22.3168C30.575 22.6293 30.7537 22.8814 30.9952 23.0732C31.2367 23.2649 31.5444 23.3608 31.9185 23.3608ZM35.1864 24V23.2188H35.3853C35.5487 23.2188 35.6848 23.1868 35.7937 23.1229C35.9026 23.0566 35.9902 22.9418 36.0565 22.7784C36.1251 22.6127 36.1772 22.383 36.2127 22.0895C36.2506 21.7936 36.2778 21.4171 36.2944 20.9602L36.3938 18.5455H40.0302V24H39.1921V19.3267H37.1893L37.104 21.2727C37.0851 21.7202 37.0449 22.1143 36.9833 22.4553C36.9241 22.7938 36.833 23.0779 36.7099 23.3075C36.5891 23.5372 36.4281 23.71 36.2269 23.826C36.0257 23.942 35.7736 24 35.4705 24H35.1864ZM42.2923 20.5199H43.8548C44.494 20.5199 44.9828 20.6821 45.3214 21.0064C45.6599 21.3307 45.8292 21.7415 45.8292 22.2386C45.8292 22.5653 45.7534 22.8625 45.6019 23.13C45.4504 23.3951 45.2279 23.607 44.9343 23.7656C44.6407 23.9219 44.2809 24 43.8548 24H41.5678V18.5455H42.4059V23.2188H43.8548C44.1862 23.2188 44.4585 23.1312 44.6715 22.956C44.8846 22.7808 44.9911 22.5559 44.9911 22.2812C44.9911 21.9924 44.8846 21.7569 44.6715 21.5746C44.4585 21.3923 44.1862 21.3011 43.8548 21.3011H42.2923V20.5199ZM46.764 22.608H47.6589C47.6779 22.8542 47.7891 23.0412 47.9927 23.169C48.1987 23.2969 48.4662 23.3608 48.7953 23.3608C49.1315 23.3608 49.4191 23.2921 49.6582 23.1548C49.8973 23.0152 50.0169 22.7902 50.0169 22.4801C50.0169 22.2978 49.9719 22.1392 49.8819 22.0043C49.792 21.867 49.6653 21.7604 49.502 21.6847C49.3386 21.6089 49.1457 21.571 48.9231 21.571H47.9856V20.8182H48.9231C49.2569 20.8182 49.5031 20.7424 49.6618 20.5909C49.8227 20.4394 49.9032 20.25 49.9032 20.0227C49.9032 19.7789 49.8168 19.5836 49.644 19.4368C49.4712 19.2876 49.2261 19.2131 48.9089 19.2131C48.5893 19.2131 48.323 19.2853 48.1099 19.4297C47.8968 19.5717 47.7844 19.7552 47.7725 19.9801H46.8919C46.9013 19.6866 46.9913 19.4273 47.1618 19.2024C47.3322 18.9751 47.5642 18.7976 47.8578 18.6697C48.1513 18.5395 48.4875 18.4744 48.8663 18.4744C49.2498 18.4744 49.5824 18.5419 49.8642 18.6768C50.1483 18.8094 50.3672 18.9905 50.5211 19.2202C50.6774 19.4474 50.7555 19.7055 50.7555 19.9943C50.7555 20.3021 50.6691 20.5507 50.4963 20.7401C50.3234 20.9295 50.1068 21.0644 49.8464 21.1449V21.2017C50.0524 21.2159 50.2311 21.2822 50.3826 21.4006C50.5365 21.5166 50.6561 21.6693 50.7413 21.8587C50.8265 22.0457 50.8691 22.2528 50.8691 22.4801C50.8691 22.8116 50.7804 23.1004 50.6028 23.3466C50.4252 23.5904 50.1814 23.7798 49.8713 23.9148C49.5611 24.0473 49.2072 24.1136 48.8095 24.1136C48.4236 24.1136 48.0779 24.0509 47.7725 23.9254C47.4672 23.7976 47.2245 23.6212 47.0446 23.3963C46.867 23.169 46.7735 22.9062 46.764 22.608ZM54.2623 24.1136C53.7698 24.1136 53.3378 23.9964 52.9661 23.7621C52.5968 23.5277 52.3079 23.1998 52.0996 22.7784C51.8936 22.357 51.7907 21.8646 51.7907 21.3011C51.7907 20.733 51.8936 20.237 52.0996 19.8132C52.3079 19.3894 52.5968 19.0604 52.9661 18.826C53.3378 18.5916 53.7698 18.4744 54.2623 18.4744C54.7547 18.4744 55.1855 18.5916 55.5549 18.826C55.9266 19.0604 56.2154 19.3894 56.4213 19.8132C56.6297 20.237 56.7338 20.733 56.7338 21.3011C56.7338 21.8646 56.6297 22.357 56.4213 22.7784C56.2154 23.1998 55.9266 23.5277 55.5549 23.7621C55.1855 23.9964 54.7547 24.1136 54.2623 24.1136ZM54.2623 23.3608C54.6363 23.3608 54.9441 23.2649 55.1855 23.0732C55.427 22.8814 55.6058 22.6293 55.7218 22.3168C55.8378 22.0043 55.8958 21.6657 55.8958 21.3011C55.8958 20.9366 55.8378 20.5968 55.7218 20.282C55.6058 19.9671 55.427 19.7126 55.1855 19.5185C54.9441 19.3243 54.6363 19.2273 54.2623 19.2273C53.8882 19.2273 53.5804 19.3243 53.339 19.5185C53.0975 19.7126 52.9187 19.9671 52.8027 20.282C52.6867 20.5968 52.6287 20.9366 52.6287 21.3011C52.6287 21.6657 52.6867 22.0043 52.8027 22.3168C52.9187 22.6293 53.0975 22.8814 53.339 23.0732C53.5804 23.2649 53.8882 23.3608 54.2623 23.3608ZM58.0131 24V18.5455H60.2433C60.8304 18.5455 61.2968 18.678 61.6424 18.9432C61.988 19.2083 62.1609 19.5587 62.1609 19.9943C62.1609 20.3258 62.0626 20.5826 61.8661 20.7649C61.6696 20.9448 61.4175 21.0668 61.1097 21.1307C61.311 21.1591 61.5063 21.2301 61.6957 21.3438C61.8874 21.4574 62.046 21.6136 62.1715 21.8125C62.297 22.009 62.3597 22.2505 62.3597 22.5369C62.3597 22.8163 62.2887 23.0661 62.1467 23.2862C62.0046 23.5064 61.801 23.6804 61.5359 23.8082C61.2707 23.9361 60.9535 24 60.5842 24H58.0131ZM58.8086 23.233H60.5842C60.873 23.233 61.0991 23.1643 61.2624 23.027C61.4258 22.8897 61.5075 22.7027 61.5075 22.4659C61.5075 22.1842 61.4258 21.9628 61.2624 21.8018C61.0991 21.6385 60.873 21.5568 60.5842 21.5568H58.8086V23.233ZM58.8086 20.8324H60.2433C60.4682 20.8324 60.6611 20.8016 60.8221 20.7401C60.9831 20.6761 61.1062 20.5862 61.1914 20.4702C61.279 20.3518 61.3228 20.2121 61.3228 20.0511C61.3228 19.8215 61.2269 19.6416 61.0352 19.5114C60.8434 19.3788 60.5794 19.3125 60.2433 19.3125H58.8086V20.8324ZM65.2335 24.1278C64.8878 24.1278 64.5742 24.0627 64.2924 23.9325C64.0107 23.8 63.787 23.6094 63.6213 23.3608C63.4556 23.1098 63.3727 22.8068 63.3727 22.4517C63.3727 22.1392 63.4342 21.8859 63.5574 21.6918C63.6805 21.4953 63.845 21.3414 64.051 21.2301C64.2569 21.1188 64.4842 21.036 64.7328 20.9815C64.9837 20.9247 65.2359 20.8797 65.4892 20.8466C65.8206 20.804 66.0893 20.772 66.2953 20.7507C66.5036 20.727 66.6551 20.688 66.7498 20.6335C66.8469 20.5791 66.8954 20.4844 66.8954 20.3494V20.321C66.8954 19.9706 66.7995 19.6984 66.6078 19.5043C66.4184 19.3101 66.1307 19.2131 65.7449 19.2131C65.3448 19.2131 65.0311 19.3007 64.8038 19.4759C64.5765 19.651 64.4167 19.8381 64.3244 20.0369L63.5289 19.7528C63.671 19.4214 63.8604 19.1634 64.0971 18.9787C64.3362 18.7917 64.5967 18.6615 64.8784 18.5881C65.1625 18.5123 65.4418 18.4744 65.7164 18.4744C65.8916 18.4744 66.0929 18.4957 66.3201 18.5384C66.5498 18.5786 66.7711 18.6626 66.9842 18.7905C67.1996 18.9183 67.3784 19.1113 67.5204 19.3693C67.6625 19.6274 67.7335 19.973 67.7335 20.4062V24H66.8954V23.2614H66.8528C66.796 23.3797 66.7013 23.5064 66.5687 23.6413C66.4361 23.7763 66.2598 23.8911 66.0396 23.9858C65.8194 24.0805 65.5507 24.1278 65.2335 24.1278ZM65.3613 23.375C65.6928 23.375 65.9721 23.3099 66.1994 23.1797C66.429 23.0495 66.6019 22.8814 66.7179 22.6754C66.8362 22.4695 66.8954 22.2528 66.8954 22.0256V21.2585C66.8599 21.3011 66.7818 21.3402 66.661 21.3757C66.5427 21.4089 66.4054 21.4384 66.2491 21.4645C66.0952 21.4882 65.9449 21.5095 65.7981 21.5284C65.6537 21.545 65.5365 21.5592 65.4466 21.571C65.2288 21.5994 65.0252 21.6456 64.8358 21.7095C64.6487 21.7711 64.4972 21.8646 64.3812 21.9901C64.2676 22.1132 64.2108 22.2812 64.2108 22.4943C64.2108 22.7855 64.3185 23.0057 64.5339 23.1548C64.7517 23.3016 65.0275 23.375 65.3613 23.375ZM72.9137 20.8892V21.6705H69.9023V20.8892H72.9137ZM70.1012 18.5455V24H69.2631V18.5455H70.1012ZM73.5529 18.5455V24H72.7148V18.5455H73.5529ZM77.2994 24.1136C76.8069 24.1136 76.3749 23.9964 76.0032 23.7621C75.6339 23.5277 75.3451 23.1998 75.1367 22.7784C74.9308 22.357 74.8278 21.8646 74.8278 21.3011C74.8278 20.733 74.9308 20.237 75.1367 19.8132C75.3451 19.3894 75.6339 19.0604 76.0032 18.826C76.3749 18.5916 76.8069 18.4744 77.2994 18.4744C77.7918 18.4744 78.2227 18.5916 78.592 18.826C78.9637 19.0604 79.2525 19.3894 79.4585 19.8132C79.6668 20.237 79.771 20.733 79.771 21.3011C79.771 21.8646 79.6668 22.357 79.4585 22.7784C79.2525 23.1998 78.9637 23.5277 78.592 23.7621C78.2227 23.9964 77.7918 24.1136 77.2994 24.1136ZM77.2994 23.3608C77.6734 23.3608 77.9812 23.2649 78.2227 23.0732C78.4641 22.8814 78.6429 22.6293 78.7589 22.3168C78.8749 22.0043 78.9329 21.6657 78.9329 21.3011C78.9329 20.9366 78.8749 20.5968 78.7589 20.282C78.6429 19.9671 78.4641 19.7126 78.2227 19.5185C77.9812 19.3243 77.6734 19.2273 77.2994 19.2273C76.9253 19.2273 76.6175 19.3243 76.3761 19.5185C76.1346 19.7126 75.9558 19.9671 75.8398 20.282C75.7238 20.5968 75.6658 20.9366 75.6658 21.3011C75.6658 21.6657 75.7238 22.0043 75.8398 22.3168C75.9558 22.6293 76.1346 22.8814 76.3761 23.0732C76.6175 23.2649 76.9253 23.3608 77.2994 23.3608ZM83.8627 24V18.5455H84.7008V20.9176H85.2548L87.215 18.5455H88.2946L86.0929 21.1733L88.323 24H87.2434L85.4537 21.6989H84.7008V24H83.8627ZM91.2251 24.1136C90.7327 24.1136 90.3007 23.9964 89.929 23.7621C89.5597 23.5277 89.2708 23.1998 89.0625 22.7784C88.8565 22.357 88.7536 21.8646 88.7536 21.3011C88.7536 20.733 88.8565 20.237 89.0625 19.8132C89.2708 19.3894 89.5597 19.0604 89.929 18.826C90.3007 18.5916 90.7327 18.4744 91.2251 18.4744C91.7176 18.4744 92.1484 18.5916 92.5178 18.826C92.8894 19.0604 93.1783 19.3894 93.3842 19.8132C93.5926 20.237 93.6967 20.733 93.6967 21.3011C93.6967 21.8646 93.5926 22.357 93.3842 22.7784C93.1783 23.1998 92.8894 23.5277 92.5178 23.7621C92.1484 23.9964 91.7176 24.1136 91.2251 24.1136ZM91.2251 23.3608C91.5992 23.3608 91.907 23.2649 92.1484 23.0732C92.3899 22.8814 92.5687 22.6293 92.6847 22.3168C92.8007 22.0043 92.8587 21.6657 92.8587 21.3011C92.8587 20.9366 92.8007 20.5968 92.6847 20.282C92.5687 19.9671 92.3899 19.7126 92.1484 19.5185C91.907 19.3243 91.5992 19.2273 91.2251 19.2273C90.8511 19.2273 90.5433 19.3243 90.3018 19.5185C90.0604 19.7126 89.8816 19.9671 89.7656 20.282C89.6496 20.5968 89.5916 20.9366 89.5916 21.3011C89.5916 21.6657 89.6496 22.0043 89.7656 22.3168C89.8816 22.6293 90.0604 22.8814 90.3018 23.0732C90.5433 23.2649 90.8511 23.3608 91.2251 23.3608ZM97.959 22.8636L99.8624 18.5455H100.658L98.2999 24H97.6181L95.3027 18.5455H96.084L97.959 22.8636ZM95.8141 18.5455V24H94.976V18.5455H95.8141ZM100.104 24V18.5455H100.942V24H100.104ZM102.476 24V18.5455H106.766V24H105.928V19.3267H103.314V24H102.476ZM109.901 24.1278C109.556 24.1278 109.242 24.0627 108.96 23.9325C108.679 23.8 108.455 23.6094 108.289 23.3608C108.124 23.1098 108.041 22.8068 108.041 22.4517C108.041 22.1392 108.102 21.8859 108.225 21.6918C108.348 21.4953 108.513 21.3414 108.719 21.2301C108.925 21.1188 109.152 21.036 109.401 20.9815C109.652 20.9247 109.904 20.8797 110.157 20.8466C110.489 20.804 110.757 20.772 110.963 20.7507C111.172 20.727 111.323 20.688 111.418 20.6335C111.515 20.5791 111.563 20.4844 111.563 20.3494V20.321C111.563 19.9706 111.468 19.6984 111.276 19.5043C111.086 19.3101 110.799 19.2131 110.413 19.2131C110.013 19.2131 109.699 19.3007 109.472 19.4759C109.244 19.651 109.085 19.8381 108.992 20.0369L108.197 19.7528C108.339 19.4214 108.528 19.1634 108.765 18.9787C109.004 18.7917 109.265 18.6615 109.546 18.5881C109.83 18.5123 110.11 18.4744 110.384 18.4744C110.56 18.4744 110.761 18.4957 110.988 18.5384C111.218 18.5786 111.439 18.6626 111.652 18.7905C111.868 18.9183 112.046 19.1113 112.188 19.3693C112.33 19.6274 112.401 19.973 112.401 20.4062V24H111.563V23.2614H111.521C111.464 23.3797 111.369 23.5064 111.237 23.6413C111.104 23.7763 110.928 23.8911 110.708 23.9858C110.487 24.0805 110.219 24.1278 109.901 24.1278ZM110.029 23.375C110.361 23.375 110.64 23.3099 110.867 23.1797C111.097 23.0495 111.27 22.8814 111.386 22.6754C111.504 22.4695 111.563 22.2528 111.563 22.0256V21.2585C111.528 21.3011 111.45 21.3402 111.329 21.3757C111.211 21.4089 111.073 21.4384 110.917 21.4645C110.763 21.4882 110.613 21.5095 110.466 21.5284C110.322 21.545 110.204 21.5592 110.115 21.571C109.897 21.5994 109.693 21.6456 109.504 21.7095C109.317 21.7711 109.165 21.8646 109.049 21.9901C108.936 22.1132 108.879 22.2812 108.879 22.4943C108.879 22.7855 108.986 23.0057 109.202 23.1548C109.42 23.3016 109.695 23.375 110.029 23.375ZM117.582 20.8892V21.6705H114.57V20.8892H117.582ZM114.769 18.5455V24H113.931V18.5455H114.769ZM118.221 18.5455V24H117.383V18.5455H118.221ZM120.589 22.7642L123.217 18.5455H124.183V24H123.345V19.7812L120.732 24H119.751V18.5455H120.589V22.7642ZM126.556 22.7642L129.184 18.5455H130.15V24H129.312V19.7812L126.698 24H125.718V18.5455H126.556V22.7642ZM128.63 16.7273H129.411C129.411 17.1108 129.279 17.4245 129.014 17.6683C128.749 17.9122 128.389 18.0341 127.934 18.0341C127.487 18.0341 127.13 17.9122 126.865 17.6683C126.602 17.4245 126.471 17.1108 126.471 16.7273H127.252C127.252 16.9119 127.303 17.0741 127.405 17.2138C127.509 17.3535 127.686 17.4233 127.934 17.4233C128.183 17.4233 128.36 17.3535 128.467 17.2138C128.576 17.0741 128.63 16.9119 128.63 16.7273Z" fill="black"/>
<path opacity="0.4" d="M27.2557 43V42.1903H27.4688C27.7718 42.1903 28.0073 42.0933 28.1754 41.8991C28.3435 41.705 28.4643 41.3913 28.5376 40.9581C28.6134 40.5249 28.6643 39.9508 28.6903 39.2358L28.8182 35.7273H33.25V43H32.3693V36.5085H29.6562L29.5426 39.4062C29.5142 40.1686 29.4444 40.8172 29.3331 41.3523C29.2218 41.8873 29.0265 42.2957 28.7472 42.5774C28.4678 42.8591 28.0606 43 27.5256 43H27.2557ZM35.734 41.7642L38.3619 37.5455H39.3278V43H38.4897V38.7812L35.8761 43H34.896V37.5455H35.734V41.7642ZM43.8457 41.8636L45.7491 37.5455H46.5446L44.1866 43H43.5048L41.1895 37.5455H41.9707L43.8457 41.8636ZM41.7008 37.5455V43H40.8627V37.5455H41.7008ZM45.9906 43V37.5455H46.8287V43H45.9906ZM49.2008 41.7642L51.8287 37.5455H52.7946V43H51.9565V38.7812L49.3429 43H48.3627V37.5455H49.2008V41.7642ZM53.5874 38.3267V37.5455H58.0192V38.3267H56.2294V43H55.3913V38.3267H53.5874ZM62.0542 43V37.5455H66.3439V43H65.5059V38.3267H62.8922V43H62.0542ZM70.0904 43.1136C69.598 43.1136 69.1659 42.9964 68.7942 42.7621C68.4249 42.5277 68.1361 42.1998 67.9277 41.7784C67.7218 41.357 67.6188 40.8646 67.6188 40.3011C67.6188 39.733 67.7218 39.237 67.9277 38.8132C68.1361 38.3894 68.4249 38.0604 68.7942 37.826C69.1659 37.5916 69.598 37.4744 70.0904 37.4744C70.5828 37.4744 71.0137 37.5916 71.383 37.826C71.7547 38.0604 72.0435 38.3894 72.2495 38.8132C72.4578 39.237 72.562 39.733 72.562 40.3011C72.562 40.8646 72.4578 41.357 72.2495 41.7784C72.0435 42.1998 71.7547 42.5277 71.383 42.7621C71.0137 42.9964 70.5828 43.1136 70.0904 43.1136ZM70.0904 42.3608C70.4644 42.3608 70.7722 42.2649 71.0137 42.0732C71.2551 41.8814 71.4339 41.6293 71.5499 41.3168C71.6659 41.0043 71.7239 40.6657 71.7239 40.3011C71.7239 39.9366 71.6659 39.5968 71.5499 39.282C71.4339 38.9671 71.2551 38.7126 71.0137 38.5185C70.7722 38.3243 70.4644 38.2273 70.0904 38.2273C69.7163 38.2273 69.4086 38.3243 69.1671 38.5185C68.9256 38.7126 68.7469 38.9671 68.6309 39.282C68.5149 39.5968 68.4569 39.9366 68.4569 40.3011C68.4569 40.6657 68.5149 41.0043 68.6309 41.3168C68.7469 41.6293 68.9256 41.8814 69.1671 42.0732C69.4086 42.2649 69.7163 42.3608 70.0904 42.3608ZM76.6538 43V37.5455H77.4918V39.9176H78.0458L80.006 37.5455H81.0856L78.8839 40.1733L81.114 43H80.0344L78.2447 40.6989H77.4918V43H76.6538ZM84.0162 43.1136C83.5237 43.1136 83.0917 42.9964 82.72 42.7621C82.3507 42.5277 82.0618 42.1998 81.8535 41.7784C81.6475 41.357 81.5446 40.8646 81.5446 40.3011C81.5446 39.733 81.6475 39.237 81.8535 38.8132C82.0618 38.3894 82.3507 38.0604 82.72 37.826C83.0917 37.5916 83.5237 37.4744 84.0162 37.4744C84.5086 37.4744 84.9395 37.5916 85.3088 37.826C85.6805 38.0604 85.9693 38.3894 86.1752 38.8132C86.3836 39.237 86.4877 39.733 86.4877 40.3011C86.4877 40.8646 86.3836 41.357 86.1752 41.7784C85.9693 42.1998 85.6805 42.5277 85.3088 42.7621C84.9395 42.9964 84.5086 43.1136 84.0162 43.1136ZM84.0162 42.3608C84.3902 42.3608 84.698 42.2649 84.9395 42.0732C85.1809 41.8814 85.3597 41.6293 85.4757 41.3168C85.5917 41.0043 85.6497 40.6657 85.6497 40.3011C85.6497 39.9366 85.5917 39.5968 85.4757 39.282C85.3597 38.9671 85.1809 38.7126 84.9395 38.5185C84.698 38.3243 84.3902 38.2273 84.0162 38.2273C83.6421 38.2273 83.3343 38.3243 83.0929 38.5185C82.8514 38.7126 82.6726 38.9671 82.5566 39.282C82.4406 39.5968 82.3826 39.9366 82.3826 40.3011C82.3826 40.6657 82.4406 41.0043 82.5566 41.3168C82.6726 41.6293 82.8514 41.8814 83.0929 42.0732C83.3343 42.2649 83.6421 42.3608 84.0162 42.3608ZM90.75 41.8636L92.6534 37.5455H93.4489L91.0909 43H90.4091L88.0938 37.5455H88.875L90.75 41.8636ZM88.6051 37.5455V43H87.767V37.5455H88.6051ZM92.8949 43V37.5455H93.733V43H92.8949ZM95.267 43V37.5455H99.5568V43H98.7188V38.3267H96.1051V43H95.267ZM102.692 43.1278C102.347 43.1278 102.033 43.0627 101.751 42.9325C101.47 42.8 101.246 42.6094 101.08 42.3608C100.915 42.1098 100.832 41.8068 100.832 41.4517C100.832 41.1392 100.893 40.8859 101.016 40.6918C101.139 40.4953 101.304 40.3414 101.51 40.2301C101.716 40.1188 101.943 40.036 102.192 39.9815C102.443 39.9247 102.695 39.8797 102.948 39.8466C103.28 39.804 103.548 39.772 103.754 39.7507C103.963 39.727 104.114 39.688 104.209 39.6335C104.306 39.5791 104.354 39.4844 104.354 39.3494V39.321C104.354 38.9706 104.259 38.6984 104.067 38.5043C103.877 38.3101 103.59 38.2131 103.204 38.2131C102.804 38.2131 102.49 38.3007 102.263 38.4759C102.036 38.651 101.876 38.8381 101.783 39.0369L100.988 38.7528C101.13 38.4214 101.319 38.1634 101.556 37.9787C101.795 37.7917 102.056 37.6615 102.337 37.5881C102.621 37.5123 102.901 37.4744 103.175 37.4744C103.351 37.4744 103.552 37.4957 103.779 37.5384C104.009 37.5786 104.23 37.6626 104.443 37.7905C104.659 37.9183 104.837 38.1113 104.979 38.3693C105.121 38.6274 105.192 38.973 105.192 39.4062V43H104.354V42.2614H104.312C104.255 42.3797 104.16 42.5064 104.028 42.6413C103.895 42.7763 103.719 42.8911 103.499 42.9858C103.278 43.0805 103.01 43.1278 102.692 43.1278ZM102.82 42.375C103.152 42.375 103.431 42.3099 103.658 42.1797C103.888 42.0495 104.061 41.8814 104.177 41.6754C104.295 41.4695 104.354 41.2528 104.354 41.0256V40.2585C104.319 40.3011 104.241 40.3402 104.12 40.3757C104.002 40.4089 103.864 40.4384 103.708 40.4645C103.554 40.4882 103.404 40.5095 103.257 40.5284C103.113 40.545 102.996 40.5592 102.906 40.571C102.688 40.5994 102.484 40.6456 102.295 40.7095C102.108 40.7711 101.956 40.8646 101.84 40.9901C101.727 41.1132 101.67 41.2812 101.67 41.4943C101.67 41.7855 101.777 42.0057 101.993 42.1548C102.211 42.3016 102.487 42.375 102.82 42.375ZM110.373 39.8892V40.6705H107.361V39.8892H110.373ZM107.56 37.5455V43H106.722V37.5455H107.56ZM111.012 37.5455V43H110.174V37.5455H111.012ZM113.381 41.7642L116.008 37.5455H116.974V43H116.136V38.7812L113.523 43H112.542V37.5455H113.381V41.7642ZM121.79 43V38.3125H120.342C120.015 38.3125 119.758 38.3883 119.571 38.5398C119.384 38.6913 119.29 38.8996 119.29 39.1648C119.29 39.4252 119.375 39.63 119.543 39.7791C119.713 39.9283 119.946 40.0028 120.242 40.0028H122.004V40.7841H120.242C119.873 40.7841 119.554 40.719 119.287 40.5888C119.019 40.4586 118.813 40.2727 118.669 40.0312C118.525 39.7874 118.452 39.4986 118.452 39.1648C118.452 38.8286 118.528 38.5398 118.68 38.2983C118.831 38.0568 119.048 37.871 119.33 37.7408C119.614 37.6106 119.951 37.5455 120.342 37.5455H122.586V43H121.79ZM118.154 43L119.702 40.2869H120.612L119.063 43H118.154ZM127.107 41.8636L129.011 37.5455H129.806L127.448 43H126.767L124.451 37.5455H125.232L127.107 41.8636ZM124.963 37.5455V43H124.124V37.5455H124.963ZM129.252 43V37.5455H130.09V43H129.252Z" fill="black"/>
</svg>
