<svg width="1236" height="83" viewBox="0 0 1236 83" fill="none" xmlns="http://www.w3.org/2000/svg">
<path d="M61.3 22.4V2H0.2V72H21.8V22.4H61.3ZM133.977 2H75.9773L70.3773 41.8C69.3773 49.3 67.5773 51.4 57.4773 51.4V72H58.9773C78.9773 72 88.5773 65.7 90.8773 49.7L94.6773 22.4H112.377V72H133.977V2ZM195.564 60.4L200.064 72H222.964L194.664 2H167.864L139.564 72H162.264L166.764 60.4H195.564ZM187.764 40H174.564L181.164 22.9L187.764 40ZM302.391 51C302.391 44.6 300.191 39.7 295.891 36.4C299.591 33.3 301.391 28.7 301.391 22.7C301.391 9.1 292.091 2 274.391 2H228.591V72H275.391C292.991 72 302.391 64.6 302.391 51ZM250.191 22.4H275.391C278.491 22.4 280.091 23.4 280.091 25.3C280.091 27.2 278.491 28.2 275.391 28.2H250.191V22.4ZM281.091 48.7C281.091 50.6 279.491 51.6 276.391 51.6H250.191V45.8H276.391C279.491 45.8 281.091 46.8 281.091 48.7ZM382.943 2H361.343V26.6H332.343V2H310.743V72H332.343V47H361.343V72H382.943V2ZM444.56 60.4L449.06 72H471.96L443.66 2H416.86L388.56 72H411.26L415.76 60.4H444.56ZM436.76 40H423.56L430.16 22.9L436.76 40ZM547.287 2H501.887C484.287 2 475.087 10.3 475.087 26C475.087 36.1 479.587 43.3 487.987 46.8L473.787 72H498.187L511.387 49.2H525.687V72H547.287V2ZM525.687 28.8H501.387C498.087 28.8 496.687 27.7 496.687 25.6C496.687 23.5 498.287 22.4 501.387 22.4H525.687V28.8ZM659.311 24.9C659.311 8.4 648.211 0.299999 629.111 0.299999H619.011C593.711 0.599995 585.811 8.49999 585.511 33.8V40.2C585.811 65.5 593.711 73.4 619.011 73.7H629.111C648.211 73.7 659.311 65.6 659.311 49.1H636.911C636.111 52 633.911 53.1 625.511 53.1H620.511C609.311 53.1 607.111 50.9 607.111 39.7V34.3C607.111 23.3 609.311 20.9 620.511 20.9H625.511C633.911 20.9 636.111 22 636.911 24.9H659.311ZM737.673 22.4V2H665.473V22.4H690.773V72H712.373V22.4H737.673ZM819.245 26C819.245 10.3 810.045 2 792.445 2H745.845V72H767.445V50H792.445C810.045 50 819.245 41.7 819.245 26ZM797.645 26C797.645 28.3 796.045 29.6 792.845 29.6H767.445V22.4H792.845C796.045 22.4 797.645 23.9 797.645 26ZM868.236 60.4L872.736 72H895.636L867.336 2H840.536L812.236 72H834.936L839.436 60.4H868.236ZM860.436 40H847.236L853.836 22.9L860.436 40ZM973.463 2H951.863V26.6H922.863V2H901.263V72H922.863V47H951.863V72H973.463V2ZM1057.88 72V2H1035.88L1006.48 35.9V2H984.88V72H1003.58L1036.28 34.3V72H1057.88ZM1147.68 51.6H1139.88V2H1118.28V51.6H1090.88V2H1069.28V72H1126.88V82.5H1147.68V51.6ZM1208.37 60.4L1212.87 72H1235.77L1207.47 2H1180.67L1152.37 72H1175.07L1179.57 60.4H1208.37ZM1200.57 40H1187.37L1193.97 22.9L1200.57 40Z" fill="white"/>
</svg>
