<svg width="976" height="228" viewBox="0 0 976 228" fill="none" xmlns="http://www.w3.org/2000/svg">
<path d="M36.7 12H0.6V47H11.4V22.2H25.9V47H36.7V12ZM79.1086 24C79.1086 16.15 74.5086 12 65.7086 12H42.4086V47H53.2086V36H65.7086C74.5086 36 79.1086 31.85 79.1086 24ZM68.3086 24C68.3086 25.15 67.5086 25.8 65.9086 25.8H53.2086V22.2H65.9086C67.5086 22.2 68.3086 22.95 68.3086 24ZM120.934 27.9C120.784 15.25 116.834 11.3 104.184 11.15H99.5836C86.9336 11.3 82.9836 15.25 82.8336 27.9V31.1C82.9836 43.75 86.9336 47.7 99.5836 47.85H104.184C116.834 47.7 120.784 43.75 120.934 31.1V27.9ZM93.6336 28.15C93.6336 22.65 94.7336 21.45 100.334 21.45H103.434C109.034 21.45 110.134 22.65 110.134 28.15V30.85C110.134 36.45 109.034 37.55 103.434 37.55H100.334C94.7336 37.55 93.6336 36.45 93.6336 30.85V28.15ZM159.989 22.2V12H123.889V22.2H136.539V47H147.339V22.2H159.989ZM201.035 27.9C200.885 15.25 196.935 11.3 184.285 11.15H179.685C167.035 11.3 163.085 15.25 162.935 27.9V31.1C163.085 43.75 167.035 47.7 179.685 47.85H184.285C196.935 47.7 200.885 43.75 201.035 31.1V27.9ZM173.735 28.15C173.735 22.65 174.835 21.45 180.435 21.45H183.535C189.135 21.45 190.235 22.65 190.235 28.15V30.85C190.235 36.45 189.135 37.55 183.535 37.55H180.435C174.835 37.55 173.735 36.45 173.735 30.85V28.15ZM240.09 22.2V12H203.99V22.2H216.64V47H227.44V22.2H240.09ZM280.676 47V12H269.676L254.976 28.95V12H244.176V47H253.526L269.876 28.15V47H280.676ZM322.475 12H286.375V47H297.175V22.2H311.675V47H322.475V12ZM364.684 47V12H353.684L338.984 28.95V12H328.184V47H337.534L353.884 28.15V47H364.684ZM407.083 24C407.083 16.15 402.483 12 393.683 12H370.383V47H381.183V36H393.683C402.483 36 407.083 31.85 407.083 24ZM396.283 24C396.283 25.15 395.483 25.8 393.883 25.8H381.183V22.2H393.883C395.483 22.2 396.283 22.95 396.283 24ZM448.908 27.9C448.758 15.25 444.808 11.3 432.158 11.15H427.558C414.908 11.3 410.958 15.25 410.808 27.9V31.1C410.958 43.75 414.908 47.7 427.558 47.85H432.158C444.808 47.7 448.758 43.75 448.908 31.1V27.9ZM421.608 28.15C421.608 22.65 422.708 21.45 428.308 21.45H431.408C437.008 21.45 438.108 22.65 438.108 28.15V30.85C438.108 36.45 437.008 37.55 431.408 37.55H428.308C422.708 37.55 421.608 36.45 421.608 30.85V28.15ZM490.803 36.5C490.803 33.3 489.703 30.85 487.553 29.2C489.403 27.65 490.303 25.35 490.303 22.35C490.303 15.55 485.653 12 476.803 12H453.903V47H477.303C486.103 47 490.803 43.3 490.803 36.5ZM464.703 22.2H477.303C478.853 22.2 479.653 22.7 479.653 23.65C479.653 24.6 478.853 25.1 477.303 25.1H464.703V22.2ZM480.153 35.35C480.153 36.3 479.353 36.8 477.803 36.8H464.703V33.9H477.803C479.353 33.9 480.153 34.4 480.153 35.35ZM519.688 41.2L521.938 47H533.388L519.238 12H505.838L491.688 47H503.038L505.288 41.2H519.688ZM515.788 31H509.188L512.488 22.45L515.788 31ZM572.302 12H561.502V24.3H547.002V12H536.202V47H547.002V34.5H561.502V47H572.302V12ZM614.11 12H603.31V24.3H588.81V12H578.01V47H588.81V34.5H603.31V47H614.11V12ZM656.719 35.3C656.719 27.45 652.169 23.6 642.919 23.6H630.619V12H619.819V47H642.919C652.169 47 656.719 43.15 656.719 35.3ZM671.069 12H660.269V47H671.069V12ZM646.069 35.3C646.069 36.25 645.269 36.7 643.719 36.7H630.619V33.9H643.719C645.269 33.9 646.069 34.35 646.069 35.3ZM695.064 9.8C700.914 9.8 704.414 6.7 704.414 1.45V0.949997H699.214C699.214 3.3 697.514 4.8 695.064 4.8C692.614 4.8 690.914 3.3 690.914 0.949997H685.714V1.45C685.714 6.7 689.214 9.8 695.064 9.8ZM713.264 47V12H702.264L687.564 28.95V12H676.764V47H686.114L702.464 28.15V47H713.264ZM769.186 12H733.086V47H743.886V22.2H758.386V47H769.186V12ZM811.595 24C811.595 16.15 806.995 12 798.195 12H774.895V47H785.695V36H798.195C806.995 36 811.595 31.85 811.595 24ZM800.795 24C800.795 25.15 799.995 25.8 798.395 25.8H785.695V22.2H798.395C799.995 22.2 800.795 22.95 800.795 24ZM851.885 47V12H840.885L826.185 28.95V12H815.385V47H824.735L841.085 28.15V47H851.885ZM895.984 12H884.784L876.834 21.1L868.884 12H857.584V47H868.384V27.5L876.734 37L885.184 27.35V47H895.984V12ZM933.538 36.8H912.488V34.25H926.688V24.65H912.488V22.2H933.438V12H901.688V47H933.538V36.8ZM975.021 24C975.021 16.15 970.421 12 961.621 12H938.321V47H949.121V36H961.621C970.421 36 975.021 31.85 975.021 24ZM964.221 24C964.221 25.15 963.421 25.8 961.821 25.8H949.121V22.2H961.821C963.421 22.2 964.221 22.95 964.221 24ZM37.3 84C37.3 76.15 32.7 72 23.9 72H0.6V107H11.4V96H23.9C32.7 96 37.3 91.85 37.3 84ZM26.5 84C26.5 85.15 25.7 85.8 24.1 85.8H11.4V82.2H24.1C25.7 82.2 26.5 82.95 26.5 84ZM61.7957 101.2L64.0457 107H75.4957L61.3457 72H47.9457L33.7957 107H45.1457L47.3957 101.2H61.7957ZM57.8957 91H51.2957L54.5957 82.45L57.8957 91ZM115.209 96.05C115.209 88.75 110.709 85.1 101.709 85.1H89.109V82.2H113.809V72H78.309V107H101.709C110.709 107 115.209 103.35 115.209 96.05ZM104.559 95.35C104.559 96.3 103.759 96.8 102.209 96.8H89.109V93.9H102.209C103.759 93.9 104.559 94.4 104.559 95.35ZM157.078 87.9C156.928 75.25 152.978 71.3 140.328 71.15H135.728C123.078 71.3 119.128 75.25 118.978 87.9V91.1C119.128 103.75 123.078 107.7 135.728 107.85H140.328C152.978 107.7 156.928 103.75 157.078 91.1V87.9ZM129.778 88.15C129.778 82.65 130.878 81.45 136.478 81.45H139.578C145.178 81.45 146.278 82.65 146.278 88.15V90.85C146.278 96.45 145.178 97.55 139.578 97.55H136.478C130.878 97.55 129.778 96.45 129.778 90.85V88.15ZM196.133 82.2V72H160.033V82.2H172.683V107H183.483V82.2H196.133ZM237.119 95.3C237.119 87.45 232.569 83.6 223.319 83.6H211.019V72H200.219V107H223.319C232.569 107 237.119 103.15 237.119 95.3ZM251.469 72H240.669V107H251.469V72ZM226.469 95.3C226.469 96.25 225.669 96.7 224.119 96.7H211.019V93.9H224.119C225.669 93.9 226.469 94.35 226.469 95.3ZM323.088 72H312.288V96.8H302.588V72H291.788V96.8H282.088V72H271.288V107H323.088V72ZM353.87 101.2L356.12 107H367.57L353.42 72H340.02L325.87 107H337.22L339.47 101.2H353.87ZM349.97 91H343.37L346.67 82.45L349.97 91ZM406.483 72H370.383V107H381.183V82.2H395.683V107H406.483V72ZM438.642 89.4L449.092 72H436.792L429.542 84.3H422.992V72H412.192V107H422.992V94.5H429.292L436.492 107H448.892L438.642 89.4ZM488.938 107V72H477.938L463.238 88.95V72H452.438V107H461.788L478.138 88.15V107H488.938ZM545.66 96.5C545.66 93.3 544.56 90.85 542.41 89.2C544.26 87.65 545.16 85.35 545.16 82.35C545.16 75.55 540.51 72 531.66 72H508.76V107H532.16C540.96 107 545.66 103.3 545.66 96.5ZM519.56 82.2H532.16C533.71 82.2 534.51 82.7 534.51 83.65C534.51 84.6 533.71 85.1 532.16 85.1H519.56V82.2ZM535.01 95.35C535.01 96.3 534.21 96.8 532.66 96.8H519.56V93.9H532.66C534.21 93.9 535.01 94.4 535.01 95.35ZM602.359 72H591.159L583.209 81.1L575.259 72H563.959V107H574.759V87.5L583.109 97L591.559 87.35V107H602.359V72ZM645.463 87.9C645.313 75.25 641.363 71.3 628.713 71.15H624.113C611.463 71.3 607.513 75.25 607.363 87.9V91.1C607.513 103.75 611.463 107.7 624.113 107.85H628.713C641.363 107.7 645.313 103.75 645.463 91.1V87.9ZM618.163 88.15C618.163 82.65 619.263 81.45 624.863 81.45H627.963C633.563 81.45 634.663 82.65 634.663 88.15V90.85C634.663 96.45 633.563 97.55 627.963 97.55H624.863C619.263 97.55 618.163 96.45 618.163 90.85V88.15ZM687.357 96.05C687.357 88.75 682.857 85.1 673.857 85.1H661.257V82.2H685.957V72H650.457V107H673.857C682.857 107 687.357 103.35 687.357 96.05ZM676.707 95.35C676.707 96.3 675.907 96.8 674.357 96.8H661.257V93.9H674.357C675.907 93.9 676.707 94.4 676.707 95.35ZM728.18 107V72H717.18L702.48 88.95V72H691.68V107H701.03L717.38 88.15V107H728.18ZM770.629 72H741.629L738.829 91.9C738.329 95.65 737.429 96.7 732.379 96.7V107H733.129C743.129 107 747.929 103.85 749.079 95.85L750.979 82.2H759.829V107H770.629V72ZM808.173 96.8H787.123V94.25H801.323V84.65H787.123V82.2H808.073V72H776.323V107H808.173V96.8ZM37.3 204C37.3 196.15 32.7 192 23.9 192H0.6V227H11.4V216H23.9C32.7 216 37.3 211.85 37.3 204ZM26.5 204C26.5 205.15 25.7 205.8 24.1 205.8H11.4V202.2H24.1C25.7 202.2 26.5 202.95 26.5 204ZM60.0902 215.6L66.3402 227H78.4902L71.2902 214.45C75.4902 212.7 77.7902 209.15 77.7902 204C77.7902 196.15 73.1902 192 64.3902 192H41.0902V227H51.8902V215.6H60.0902ZM51.8902 205.4V202.2H64.6402C66.1902 202.2 66.9902 202.75 66.9902 203.8C66.9902 204.85 66.2902 205.4 64.6402 205.4H51.8902ZM114.114 216.8H93.0641V214.25H107.264V204.65H93.0641V202.2H114.014V192H82.2641V227H114.114V216.8ZM154.097 203.45C154.097 195.2 148.297 191.15 139.097 191.15H132.497C123.097 191.15 117.697 194.85 117.697 202.9C117.697 210.7 122.647 214.55 132.647 214.55H141.197C142.947 214.55 143.697 215.05 143.697 216.1C143.697 217.1 142.947 217.55 141.197 217.55H134.597C130.397 217.55 129.297 217 128.897 215.55H117.697C117.697 219.7 119.047 222.8 121.747 224.85C124.497 226.85 128.147 227.85 132.697 227.85H139.797C149.647 227.85 154.747 224.15 154.747 216.1C154.747 207.75 149.947 204.45 139.947 204.45H131.147C129.397 204.45 128.647 203.95 128.647 202.9C128.647 201.9 129.397 201.45 131.147 201.45H137.197C141.397 201.45 142.497 202 142.897 203.45H154.097ZM194.343 203.45C194.343 195.2 188.543 191.15 179.343 191.15H172.743C163.343 191.15 157.943 194.85 157.943 202.9C157.943 210.7 162.893 214.55 172.893 214.55H181.443C183.193 214.55 183.943 215.05 183.943 216.1C183.943 217.1 183.193 217.55 181.443 217.55H174.843C170.643 217.55 169.543 217 169.143 215.55H157.943C157.943 219.7 159.293 222.8 161.993 224.85C164.743 226.85 168.393 227.85 172.943 227.85H180.043C189.893 227.85 194.993 224.15 194.993 216.1C194.993 207.75 190.193 204.45 180.193 204.45H171.393C169.643 204.45 168.893 203.95 168.893 202.9C168.893 201.9 169.643 201.45 171.393 201.45H177.443C181.643 201.45 182.743 202 183.143 203.45H194.343ZM250.212 204C250.212 196.15 245.612 192 236.812 192H213.512V227H224.312V216H236.812C245.612 216 250.212 211.85 250.212 204ZM239.412 204C239.412 205.15 238.612 205.8 237.012 205.8H224.312V202.2H237.012C238.612 202.2 239.412 202.95 239.412 204ZM284.602 216.8H264.802V192H254.002V227H284.602V216.8ZM315.052 221.2L317.302 227H328.752L314.602 192H301.202L287.052 227H298.402L300.652 221.2H315.052ZM311.152 211H304.552L307.852 202.45L311.152 211ZM360.885 192H348.385L341.235 204.3L334.035 192H321.485L335.735 215.6V227H346.535V215.6L360.885 192Z" fill="white"/>
</svg>
