<svg width="1728" height="83" viewBox="0 0 1728 83" fill="none" xmlns="http://www.w3.org/2000/svg">
<path d="M74.6 24.9C74.6 8.4 63.5 0.299999 44.4 0.299999H34.3C9 0.599995 1.1 8.49999 0.8 33.8V40.2C1.1 65.5 9 73.4 34.3 73.7H44.4C63.5 73.7 74.6 65.6 74.6 49.1H52.2C51.4 52 49.2 53.1 40.8 53.1H35.8C24.6 53.1 22.4 50.9 22.4 39.7V34.3C22.4 23.3 24.6 20.9 35.8 20.9H40.8C49.2 20.9 51.4 22 52.2 24.9H74.6ZM152.962 22.4V2H80.7617V22.4H106.062V72H127.662V22.4H152.962ZM234.534 26C234.534 10.3 225.334 2 207.734 2H161.134V72H182.734V50H207.734C225.334 50 234.534 41.7 234.534 26ZM212.934 26C212.934 28.3 211.334 29.6 208.134 29.6H182.734V22.4H208.134C211.334 22.4 212.934 23.9 212.934 26ZM283.525 60.4L288.025 72H310.925L282.625 2H255.825L227.525 72H250.225L254.725 60.4H283.525ZM275.725 40H262.525L269.125 22.9L275.725 40ZM388.752 2H367.152V26.6H338.152V2H316.552V72H338.152V47H367.152V72H388.752V2ZM473.169 72V2H451.169L421.769 35.9V2H400.169V72H418.869L451.569 34.3V72H473.169ZM562.967 51.6H555.167V2H533.567V51.6H506.167V2H484.567V72H542.167V82.5H562.967V51.6ZM623.658 60.4L628.158 72H651.058L622.758 2H595.958L567.658 72H590.358L594.858 60.4H623.658ZM615.858 40H602.658L609.258 22.9L615.858 40ZM756.973 51C756.973 44.6 754.773 39.7 750.473 36.4C754.173 33.3 755.973 28.7 755.973 22.7C755.973 9.1 746.673 2 728.973 2H683.173V72H729.973C747.573 72 756.973 64.6 756.973 51ZM704.773 22.4H729.973C733.073 22.4 734.673 23.4 734.673 25.3C734.673 27.2 733.073 28.2 729.973 28.2H704.773V22.4ZM735.673 48.7C735.673 50.6 734.073 51.6 730.973 51.6H704.773V45.8H730.973C734.073 45.8 735.673 46.8 735.673 48.7ZM839.125 48.6C839.125 32.9 830.025 25.2 811.525 25.2H786.925V2H765.325V72H811.525C830.025 72 839.125 64.3 839.125 48.6ZM867.825 2H846.225V72H867.825V2ZM817.825 48.6C817.825 50.5 816.225 51.4 813.125 51.4H786.925V45.8H813.125C816.225 45.8 817.825 46.7 817.825 48.6ZM960.416 51.6H952.616V2H895.816L890.516 39.6C889.416 47.2 888.716 49.7 885.416 51.2C883.716 51.9 881.016 52.2 877.316 52.2H876.016V82.5H896.816V72H939.616V82.5H960.416V51.6ZM931.016 51.6H909.816C910.516 49.4 911.116 46.7 911.616 43.4L914.516 22.4H931.016V51.6ZM1021.04 60.4L1025.54 72H1048.44L1020.14 2H993.341L965.041 72H987.741L992.241 60.4H1021.04ZM1013.24 40H1000.04L1006.64 22.9L1013.24 40ZM1112.03 2H1090.43V26.4H1076.23C1064.23 26.1 1063.13 25 1062.83 13V2H1041.23V13.5C1041.73 40.6 1047.63 46.5 1074.73 47H1090.43V72H1112.03V2ZM1196.43 72V2H1174.43L1145.03 35.9V2H1123.43V72H1142.13L1174.83 34.3V72H1196.43ZM1308.27 2H1236.07V72H1257.67V22.4H1286.67V72H1308.27V2ZM1394.49 33.8C1394.19 8.49999 1386.29 0.599995 1360.99 0.299999H1351.79C1326.49 0.599995 1318.59 8.49999 1318.29 33.8V40.2C1318.59 65.5 1326.49 73.4 1351.79 73.7H1360.99C1386.29 73.4 1394.19 65.5 1394.49 40.2V33.8ZM1339.89 34.3C1339.89 23.3 1342.09 20.9 1353.29 20.9H1359.49C1370.69 20.9 1372.89 23.3 1372.89 34.3V39.7C1372.89 50.9 1370.69 53.1 1359.49 53.1H1353.29C1342.09 53.1 1339.89 50.9 1339.89 39.7V34.3ZM1477.48 72V2H1455.48L1426.08 35.9V2H1404.48V72H1423.18L1455.88 34.3V72H1477.48ZM1561.28 24.9C1561.28 8.4 1550.18 0.299999 1531.08 0.299999H1520.98C1495.68 0.599995 1487.78 8.49999 1487.48 33.8V40.2C1487.78 65.5 1495.68 73.4 1520.98 73.7H1531.08C1550.18 73.7 1561.28 65.6 1561.28 49.1H1538.88C1538.08 52 1535.88 53.1 1527.48 53.1H1522.48C1511.28 53.1 1509.08 50.9 1509.08 39.7V34.3C1509.08 23.3 1511.28 20.9 1522.48 20.9H1527.48C1535.88 20.9 1538.08 22 1538.88 24.9H1561.28ZM1623.54 36.8L1644.44 2H1619.84L1605.34 26.6H1592.24V2H1570.64V72H1592.24V47H1604.84L1619.24 72H1644.04L1623.54 36.8ZM1699.86 60.4L1704.36 72H1727.26L1698.96 2H1672.16L1643.86 72H1666.56L1671.06 60.4H1699.86ZM1692.06 40H1678.86L1685.46 22.9L1692.06 40Z" fill="white"/>
</svg>
