<svg width="1580" height="83" viewBox="0 0 1580 83" fill="none" xmlns="http://www.w3.org/2000/svg">
<path d="M74.6 24.9C74.6 8.4 63.5 0.299999 44.4 0.299999H34.3C9 0.599995 1.1 8.49999 0.8 33.8V40.2C1.1 65.5 9 73.4 34.3 73.7H44.4C63.5 73.7 74.6 65.6 74.6 49.1H52.2C51.4 52 49.2 53.1 40.8 53.1H35.8C24.6 53.1 22.4 50.9 22.4 39.7V34.3C22.4 23.3 24.6 20.9 35.8 20.9H40.8C49.2 20.9 51.4 22 52.2 24.9H74.6ZM152.962 22.4V2H80.7617V22.4H106.062V72H127.662V22.4H152.962ZM234.534 26C234.534 10.3 225.334 2 207.734 2H161.134V72H182.734V50H207.734C225.334 50 234.534 41.7 234.534 26ZM212.934 26C212.934 28.3 211.334 29.6 208.134 29.6H182.734V22.4H208.134C211.334 22.4 212.934 23.9 212.934 26ZM283.525 60.4L288.025 72H310.925L282.625 2H255.825L227.525 72H250.225L254.725 60.4H283.525ZM275.725 40H262.525L269.125 22.9L275.725 40ZM388.752 2H367.152V26.6H338.152V2H316.552V72H338.152V47H367.152V72H388.752V2ZM473.169 72V2H451.169L421.769 35.9V2H400.169V72H418.869L451.569 34.3V72H473.169ZM562.967 51.6H555.167V2H533.567V51.6H506.167V2H484.567V72H542.167V82.5H562.967V51.6ZM623.658 60.4L628.158 72H651.058L622.758 2H595.958L567.658 72H590.358L594.858 60.4H623.658ZM615.858 40H602.658L609.258 22.9L615.858 40ZM731.615 60.4L736.115 72H759.015L730.715 2H703.915L675.615 72H698.315L702.815 60.4H731.615ZM723.815 40H710.615L717.215 22.9L723.815 40ZM838.441 51C838.441 44.6 836.241 39.7 831.941 36.4C835.641 33.3 837.441 28.7 837.441 22.7C837.441 9.1 828.141 2 810.441 2H764.641V72H811.441C829.041 72 838.441 64.6 838.441 51ZM786.241 22.4H811.441C814.541 22.4 816.141 23.4 816.141 25.3C816.141 27.2 814.541 28.2 811.441 28.2H786.241V22.4ZM817.141 48.7C817.141 50.6 815.541 51.6 812.441 51.6H786.241V45.8H812.441C815.541 45.8 817.141 46.8 817.141 48.7ZM915.794 22.4V2H843.594V22.4H868.894V72H890.494V22.4H915.794ZM997.887 33.8C997.587 8.49999 989.687 0.599995 964.387 0.299999H955.187C929.887 0.599995 921.987 8.49999 921.687 33.8V40.2C921.987 65.5 929.887 73.4 955.187 73.7H964.387C989.687 73.4 997.587 65.5 997.887 40.2V33.8ZM943.287 34.3C943.287 23.3 945.487 20.9 956.687 20.9H962.887C974.087 20.9 976.287 23.3 976.287 34.3V39.7C976.287 50.9 974.087 53.1 962.887 53.1H956.687C945.487 53.1 943.287 50.9 943.287 39.7V34.3ZM1081.28 26C1081.28 10.3 1072.08 2 1054.48 2H1007.88V72H1029.48V50H1054.48C1072.08 50 1081.28 41.7 1081.28 26ZM1059.68 26C1059.68 28.3 1058.08 29.6 1054.88 29.6H1029.48V22.4H1054.88C1058.08 22.4 1059.68 23.9 1059.68 26ZM1161.86 72V2H1139.86L1110.46 35.9V2H1088.86V72H1107.56L1140.26 34.3V72H1161.86ZM1245.05 50.2C1245.05 43.9 1243.15 39.1 1239.85 36.4C1242.65 33.6 1244.05 29.3 1244.05 23.6C1244.05 8.09999 1233.45 0.299999 1212.25 0.299999H1204.05C1182.35 0.299999 1171.05 7.8 1171.05 24.9H1193.65C1194.45 22 1196.65 20.9 1205.05 20.9H1215.65C1218.95 20.9 1220.65 22 1220.65 24.3C1220.65 26.6 1218.95 27.7 1215.65 27.7H1197.85V46.3H1216.65C1219.95 46.3 1221.65 47.4 1221.65 49.7C1221.65 52 1219.95 53.1 1216.65 53.1H1205.05C1196.65 53.1 1194.45 52 1193.65 49.1H1171.05C1171.05 66.2 1182.35 73.7 1204.05 73.7H1212.95C1233.65 73.7 1245.05 65.5 1245.05 50.2ZM1302.87 60.4L1307.37 72H1330.27L1301.97 2H1275.17L1246.87 72H1269.57L1274.07 60.4H1302.87ZM1295.07 40H1281.87L1288.47 22.9L1295.07 40ZM1414.3 51.6H1406.5V2H1384.9V51.6H1357.5V2H1335.9V72H1393.5V82.5H1414.3V51.6ZM1495.54 72V2H1473.54L1444.14 35.9V2H1422.54V72H1441.24L1473.94 34.3V72H1495.54ZM1579.94 72V2H1557.94L1528.54 35.9V2H1506.94V72H1525.64L1558.34 34.3V72H1579.94Z" fill="white"/>
</svg>
