<svg width="1175" height="83" viewBox="0 0 1175 83" fill="none" xmlns="http://www.w3.org/2000/svg">
<path d="M74.6 24.9C74.6 8.4 63.5 0.299999 44.4 0.299999H34.3C9 0.599995 1.1 8.49999 0.8 33.8V40.2C1.1 65.5 9 73.4 34.3 73.7H44.4C63.5 73.7 74.6 65.6 74.6 49.1H52.2C51.4 52 49.2 53.1 40.8 53.1H35.8C24.6 53.1 22.4 50.9 22.4 39.7V34.3C22.4 23.3 24.6 20.9 35.8 20.9H40.8C49.2 20.9 51.4 22 52.2 24.9H74.6ZM152.962 22.4V2H80.7617V22.4H106.062V72H127.662V22.4H152.962ZM234.534 26C234.534 10.3 225.334 2 207.734 2H161.134V72H182.734V50H207.734C225.334 50 234.534 41.7 234.534 26ZM212.934 26C212.934 28.3 211.334 29.6 208.134 29.6H182.734V22.4H208.134C211.334 22.4 212.934 23.9 212.934 26ZM283.525 60.4L288.025 72H310.925L282.625 2H255.825L227.525 72H250.225L254.725 60.4H283.525ZM275.725 40H262.525L269.125 22.9L275.725 40ZM388.752 2H367.152V26.6H338.152V2H316.552V72H338.152V47H367.152V72H388.752V2ZM473.169 72V2H451.169L421.769 35.9V2H400.169V72H418.869L451.569 34.3V72H473.169ZM562.967 51.6H555.167V2H533.567V51.6H506.167V2H484.567V72H542.167V82.5H562.967V51.6ZM623.658 60.4L628.158 72H651.058L622.758 2H595.958L567.658 72H590.358L594.858 60.4H623.658ZM615.858 40H602.658L609.258 22.9L615.858 40ZM755.373 2H683.173V72H704.773V22.4H733.773V72H755.373V2ZM841.59 33.8C841.29 8.49999 833.39 0.599995 808.09 0.299999H798.89C773.59 0.599995 765.69 8.49999 765.39 33.8V40.2C765.69 65.5 773.59 73.4 798.89 73.7H808.09C833.39 73.4 841.29 65.5 841.59 40.2V33.8ZM786.99 34.3C786.99 23.3 789.19 20.9 800.39 20.9H806.59C817.79 20.9 819.99 23.3 819.99 34.3V39.7C819.99 50.9 817.79 53.1 806.59 53.1H800.39C789.19 53.1 786.99 50.9 786.99 39.7V34.3ZM924.579 72V2H902.579L873.179 35.9V2H851.579V72H870.279L902.979 34.3V72H924.579ZM1008.38 24.9C1008.38 8.4 997.277 0.299999 978.177 0.299999H968.077C942.777 0.599995 934.877 8.49999 934.577 33.8V40.2C934.877 65.5 942.777 73.4 968.077 73.7H978.177C997.277 73.7 1008.38 65.6 1008.38 49.1H985.977C985.177 52 982.977 53.1 974.577 53.1H969.577C958.377 53.1 956.177 50.9 956.177 39.7V34.3C956.177 23.3 958.377 20.9 969.577 20.9H974.577C982.977 20.9 985.177 22 985.977 24.9H1008.38ZM1070.64 36.8L1091.54 2H1066.94L1052.44 26.6H1039.34V2H1017.74V72H1039.34V47H1051.94L1066.34 72H1091.14L1070.64 36.8ZM1146.97 60.4L1151.47 72H1174.37L1146.07 2H1119.27L1090.97 72H1113.67L1118.17 60.4H1146.97ZM1139.17 40H1125.97L1132.57 22.9L1139.17 40Z" fill="white"/>
</svg>
