<svg width="1810" height="541" viewBox="0 0 1810 541" fill="none" xmlns="http://www.w3.org/2000/svg">
<rect y="136" width="209" height="209" fill="#029491"/>
<rect x="1331" y="136" width="209" height="209" fill="#7CE3E1"/>
<rect x="1601" y="136" width="209" height="209" fill="#5970FF"/>
<rect x="540" y="136" width="209" height="209" fill="white"/>
<rect x="270" y="136" width="209" height="209" fill="black"/>
<rect x="1061" y="136" width="209" height="209" fill="#FFB64F"/>
<path d="M36 29.81C35.865 18.425 32.31 14.87 20.925 14.735H16.785C5.4 14.87 1.845 18.425 1.71 29.81V32.69C1.845 44.075 5.4 47.63 16.785 47.765H20.925C32.31 47.63 35.865 44.075 36 32.69V29.81ZM11.43 30.035C11.43 25.085 12.42 24.005 17.46 24.005H20.25C25.29 24.005 26.28 25.085 26.28 30.035V32.465C26.28 37.505 25.29 38.495 20.25 38.495H17.46C12.42 38.495 11.43 37.505 11.43 32.465V30.035ZM72.6251 25.805C72.6251 18.38 67.6301 14.735 59.0351 14.735H54.4901C43.1051 14.87 39.5501 18.425 39.4151 29.81V32.69C39.5501 44.075 43.1051 47.63 54.4901 47.765H59.0351C67.6301 47.765 72.6251 44.12 72.6251 36.695H62.5451C62.1851 38 61.1951 38.495 57.4151 38.495H55.1651C50.1251 38.495 49.1351 37.505 49.1351 32.465V30.035C49.1351 25.085 50.1251 24.005 55.1651 24.005H57.4151C61.1951 24.005 62.1851 24.5 62.5451 25.805H72.6251ZM108.878 15.5H99.1579V26.57H86.1079V15.5H76.3879V47H86.1079V35.75H99.1579V47H108.878V15.5ZM147.226 29.81C147.091 18.425 143.536 14.87 132.151 14.735H128.011C116.626 14.87 113.071 18.425 112.936 29.81V32.69C113.071 44.075 116.626 47.63 128.011 47.765H132.151C143.536 47.63 147.091 44.075 147.226 32.69V29.81ZM122.656 30.035C122.656 25.085 123.646 24.005 128.686 24.005H131.476C136.516 24.005 137.506 25.085 137.506 30.035V32.465C137.506 37.505 136.516 38.495 131.476 38.495H128.686C123.646 38.495 122.656 37.505 122.656 32.465V30.035ZM184.481 37.55C184.481 34.67 183.491 32.465 181.556 30.98C183.221 29.585 184.031 27.515 184.031 24.815C184.031 18.695 179.846 15.5 171.881 15.5H151.271V47H172.331C180.251 47 184.481 43.67 184.481 37.55ZM160.991 24.68H172.331C173.726 24.68 174.446 25.13 174.446 25.985C174.446 26.84 173.726 27.29 172.331 27.29H160.991V24.68ZM174.896 36.515C174.896 37.37 174.176 37.82 172.781 37.82H160.991V35.21H172.781C174.176 35.21 174.896 35.66 174.896 36.515ZM220.279 15.5H210.559V26.57H197.509V15.5H187.789V47H197.509V35.75H210.559V47H220.279V15.5ZM258.177 36.47C258.177 29.405 254.082 25.94 245.757 25.94H234.687V15.5H224.967V47H245.757C254.082 47 258.177 43.535 258.177 36.47ZM271.092 15.5H261.372V47H271.092V15.5ZM248.592 36.47C248.592 37.325 247.872 37.73 246.477 37.73H234.687V35.21H246.477C247.872 35.21 248.592 35.615 248.592 36.47ZM304.433 37.82H285.488V35.525H298.268V26.885H285.488V24.68H304.343V15.5H275.768V47H304.433V37.82ZM355.828 37.82H352.318V15.5H342.598V37.82H330.268V15.5H320.548V47H346.468V51.725H355.828V37.82ZM392.298 37.55C392.298 34.67 391.308 32.465 389.373 30.98C391.038 29.585 391.848 27.515 391.848 24.815C391.848 18.695 387.663 15.5 379.698 15.5H359.088V47H380.148C388.068 47 392.298 43.67 392.298 37.55ZM368.808 24.68H380.148C381.543 24.68 382.263 25.13 382.263 25.985C382.263 26.84 381.543 27.29 380.148 27.29H368.808V24.68ZM382.713 36.515C382.713 37.37 381.993 37.82 380.598 37.82H368.808V35.21H380.598C381.993 35.21 382.713 35.66 382.713 36.515ZM424.272 37.82H405.327V35.525H418.107V26.885H405.327V24.68H424.182V15.5H395.607V47H424.272V37.82ZM459.44 24.68V15.5H426.95V24.68H438.335V47H448.055V24.68H459.44ZM480.291 41.78L482.316 47H492.621L479.886 15.5H467.826L455.091 47H465.306L467.331 41.78H480.291ZM476.781 32.6H470.841L473.811 24.905L476.781 32.6Z" fill="white"/>
<path d="M50.96 498.5H41.24V520.82H32.51V498.5H22.79V520.82H14.06V498.5H4.34V530H50.96V498.5ZM88.6542 509.3C88.6542 502.235 84.5142 498.5 76.5942 498.5H55.6242V530H65.3442V520.1H76.5942C84.5142 520.1 88.6542 516.365 88.6542 509.3ZM78.9342 509.3C78.9342 510.335 78.2142 510.92 76.7742 510.92H65.3442V507.68H76.7742C78.2142 507.68 78.9342 508.355 78.9342 509.3ZM124.465 530V498.5H114.565L101.335 513.755V498.5H91.6154V530H100.03L114.745 513.035V530H124.465ZM151.555 528.155C160.555 527.885 165.145 524.51 165.145 514.25C165.145 503.99 160.555 500.615 151.555 500.345V498.5H141.835V500.345C132.835 500.615 128.245 503.99 128.245 514.25C128.245 524.51 132.835 527.885 141.835 528.155V530H151.555V528.155ZM141.835 518.84C139.18 518.48 137.965 517.355 137.965 514.25C137.965 511.145 139.18 510.02 141.835 509.66V518.84ZM155.425 514.25C155.425 517.355 154.21 518.48 151.555 518.84V509.66C154.21 510.02 155.425 511.145 155.425 514.25ZM199.35 507.68V498.5H166.86V507.68H178.245V530H187.965V507.68H199.35ZM212.91 508.085C212.91 504.44 211.29 502.82 207.555 502.82C203.82 502.82 202.2 504.44 202.2 508.085C202.2 511.73 203.82 513.35 207.555 513.35C211.29 513.35 212.91 511.73 212.91 508.085ZM212.91 525.095C212.91 521.45 211.29 519.83 207.555 519.83C203.82 519.83 202.2 521.45 202.2 525.095C202.2 528.74 203.82 530.36 207.555 530.36C211.29 530.36 212.91 528.74 212.91 525.095Z" fill="white"/>
<path d="M318.06 507.68H336.6V498.5H308.34V530H318.06V518.975H330.39V510.335H318.06V507.68ZM368.777 520.82H349.832V518.525H362.612V509.885H349.832V507.68H368.687V498.5H340.112V530H368.777V520.82ZM389.732 519.74L395.357 530H406.292L399.812 518.705C403.592 517.13 405.662 513.935 405.662 509.3C405.662 502.235 401.522 498.5 393.602 498.5H372.632V530H382.352V519.74H389.732ZM382.352 510.56V507.68H393.827C395.222 507.68 395.942 508.175 395.942 509.12C395.942 510.065 395.312 510.56 393.827 510.56H382.352ZM426.338 519.74L431.963 530H442.898L436.418 518.705C440.198 517.13 442.268 513.935 442.268 509.3C442.268 502.235 438.128 498.5 430.208 498.5H409.238V530H418.958V519.74H426.338ZM418.958 510.56V507.68H430.433C431.828 507.68 432.548 508.175 432.548 509.12C432.548 510.065 431.918 510.56 430.433 510.56H418.958ZM477.374 498.5H466.124L459.689 509.57L453.209 498.5H441.914L454.739 519.74V530H464.459V519.74L477.374 498.5Z" fill="white"/>
<path d="M549.482 492.636V529H543.995V492.636H549.482ZM562.354 512.807V529H557.045V501.727H562.141V506.166H562.479C563.106 504.722 564.089 503.562 565.426 502.686C566.776 501.81 568.474 501.372 570.522 501.372C572.38 501.372 574.008 501.763 575.405 502.544C576.802 503.313 577.885 504.462 578.654 505.989C579.424 507.516 579.808 509.404 579.808 511.653V529H574.499V512.292C574.499 510.315 573.984 508.77 572.955 507.658C571.925 506.533 570.51 505.971 568.711 505.971C567.48 505.971 566.385 506.237 565.426 506.77C564.479 507.303 563.728 508.084 563.171 509.114C562.627 510.132 562.354 511.363 562.354 512.807ZM599.659 501.727V505.989H584.762V501.727H599.659ZM588.757 495.193H594.066V520.992C594.066 522.022 594.22 522.797 594.528 523.318C594.835 523.827 595.232 524.176 595.717 524.366C596.214 524.543 596.753 524.632 597.333 524.632C597.759 524.632 598.132 524.603 598.452 524.543C598.771 524.484 599.02 524.437 599.197 524.401L600.156 528.787C599.848 528.905 599.411 529.024 598.842 529.142C598.274 529.272 597.564 529.343 596.712 529.355C595.315 529.379 594.013 529.13 592.805 528.609C591.598 528.089 590.621 527.284 589.876 526.195C589.13 525.106 588.757 523.738 588.757 522.093V495.193ZM616.993 529.55C614.306 529.55 611.992 528.976 610.051 527.828C608.121 526.668 606.63 525.04 605.576 522.945C604.535 520.838 604.014 518.37 604.014 515.541C604.014 512.748 604.535 510.286 605.576 508.155C606.63 506.024 608.097 504.361 609.98 503.165C611.874 501.97 614.087 501.372 616.62 501.372C618.159 501.372 619.651 501.627 621.095 502.136C622.539 502.645 623.835 503.444 624.983 504.533C626.131 505.622 627.037 507.036 627.7 508.776C628.363 510.504 628.694 512.606 628.694 515.08V516.962H607.014V512.984H623.492C623.492 511.588 623.208 510.351 622.639 509.273C622.071 508.184 621.272 507.326 620.242 506.699C619.224 506.071 618.029 505.758 616.656 505.758C615.164 505.758 613.862 506.125 612.749 506.859C611.649 507.581 610.796 508.528 610.193 509.7C609.601 510.86 609.305 512.12 609.305 513.482V516.589C609.305 518.412 609.624 519.962 610.264 521.241C610.915 522.519 611.82 523.496 612.98 524.17C614.14 524.833 615.496 525.165 617.046 525.165C618.052 525.165 618.97 525.023 619.798 524.739C620.627 524.443 621.343 524.005 621.947 523.425C622.551 522.845 623.012 522.129 623.332 521.276L628.357 522.182C627.954 523.661 627.232 524.958 626.191 526.07C625.161 527.171 623.865 528.029 622.302 528.645C620.751 529.249 618.982 529.55 616.993 529.55ZM634.585 529V501.727H639.716V506.06H640C640.497 504.592 641.373 503.438 642.628 502.597C643.894 501.745 645.327 501.319 646.925 501.319C647.256 501.319 647.647 501.331 648.097 501.354C648.558 501.378 648.919 501.408 649.18 501.443V506.521C648.967 506.462 648.588 506.397 648.043 506.326C647.499 506.243 646.954 506.202 646.41 506.202C645.155 506.202 644.036 506.468 643.054 507.001C642.083 507.522 641.314 508.25 640.746 509.185C640.178 510.108 639.893 511.161 639.893 512.345V529H634.585Z" fill="white"/>
<path d="M1099.88 37.82H1096.37V15.5H1070.81L1068.43 32.42C1067.93 35.84 1067.61 36.965 1066.13 37.64C1065.37 37.955 1064.15 38.09 1062.48 38.09H1061.9V51.725H1071.26V47H1090.52V51.725H1099.88V37.82ZM1086.65 37.82H1077.11C1077.43 36.83 1077.7 35.615 1077.92 34.13L1079.23 24.68H1086.65V37.82ZM1136.51 29.81C1136.37 18.425 1132.82 14.87 1121.43 14.735H1117.29C1105.91 14.87 1102.35 18.425 1102.22 29.81V32.69C1102.35 44.075 1105.91 47.63 1117.29 47.765H1121.43C1132.82 47.63 1136.37 44.075 1136.51 32.69V29.81ZM1111.94 30.035C1111.94 25.085 1112.93 24.005 1117.97 24.005H1120.76C1125.8 24.005 1126.79 25.085 1126.79 30.035V32.465C1126.79 37.505 1125.8 38.495 1120.76 38.495H1117.97C1112.93 38.495 1111.94 37.505 1111.94 32.465V30.035ZM1173.04 15.5H1140.55V47H1150.27V24.68H1163.32V47H1173.04V15.5ZM1211.39 29.81C1211.25 18.425 1207.7 14.87 1196.31 14.735H1192.17C1180.79 14.87 1177.23 18.425 1177.1 29.81V32.69C1177.23 44.075 1180.79 47.63 1192.17 47.765H1196.31C1207.7 47.63 1211.25 44.075 1211.39 32.69V29.81ZM1186.82 30.035C1186.82 25.085 1187.81 24.005 1192.85 24.005H1195.64C1200.68 24.005 1201.67 25.085 1201.67 30.035V32.465C1201.67 37.505 1200.68 38.495 1195.64 38.495H1192.85C1187.81 38.495 1186.82 37.505 1186.82 32.465V30.035ZM1247.94 15.5H1221.84L1219.32 33.41C1218.87 36.785 1218.06 37.73 1213.51 37.73V47H1214.19C1223.19 47 1227.51 44.165 1228.54 36.965L1230.25 24.68H1238.22V47H1247.94V15.5ZM1285.1 15.5H1275.38V26.57H1262.33V15.5H1252.61V47H1262.33V35.75H1275.38V47H1285.1V15.5ZM1322.64 47V15.5H1312.74L1299.51 30.755V15.5H1289.79V47H1298.21L1312.92 30.035V47H1322.64ZM1358.37 24.68V15.5H1325.88V24.68H1337.26V47H1346.98V24.68H1358.37ZM1390.26 37.82H1371.32V35.525H1384.1V26.885H1371.32V24.68H1390.17V15.5H1361.6V47H1390.26V37.82ZM1427.54 15.5H1401.44L1398.92 33.41C1398.47 36.785 1397.66 37.73 1393.12 37.73V47H1393.79C1402.79 47 1407.11 44.165 1408.15 36.965L1409.86 24.68H1417.82V47H1427.54V15.5ZM1463.99 36.47C1463.99 29.585 1459.85 25.94 1451.93 25.94H1441.94V15.5H1432.22V47H1451.93C1459.85 47 1463.99 43.355 1463.99 36.47ZM1454.27 36.47C1454.27 37.415 1453.64 37.82 1452.15 37.82H1441.94V35.12H1452.15C1453.64 35.12 1454.27 35.525 1454.27 36.47ZM1499.47 15.5H1489.75V26.57H1476.7V15.5H1466.98V47H1476.7V35.75H1489.75V47H1499.47V15.5ZM1537.37 36.47C1537.37 29.405 1533.27 25.94 1524.95 25.94H1513.88V15.5H1504.16V47H1524.95C1533.27 47 1537.37 43.535 1537.37 36.47ZM1550.28 15.5H1540.56V47H1550.28V15.5ZM1527.78 36.47C1527.78 37.325 1527.06 37.73 1525.67 37.73H1513.88V35.21H1525.67C1527.06 35.21 1527.78 35.615 1527.78 36.47ZM1583.62 37.82H1564.68V35.525H1577.46V26.885H1564.68V24.68H1583.53V15.5H1554.96V47H1583.62V37.82ZM1635.02 37.82H1631.51V15.5H1621.79V37.82H1609.46V15.5H1599.74V47H1625.66V51.725H1635.02V37.82ZM1671.49 37.55C1671.49 34.67 1670.5 32.465 1668.56 30.98C1670.23 29.585 1671.04 27.515 1671.04 24.815C1671.04 18.695 1666.85 15.5 1658.89 15.5H1638.28V47H1659.34C1667.26 47 1671.49 43.67 1671.49 37.55ZM1648 24.68H1659.34C1660.73 24.68 1661.45 25.13 1661.45 25.985C1661.45 26.84 1660.73 27.29 1659.34 27.29H1648V24.68ZM1661.9 36.515C1661.9 37.37 1661.18 37.82 1659.79 37.82H1648V35.21H1659.79C1661.18 35.21 1661.9 35.66 1661.9 36.515ZM1703.46 37.82H1684.52V35.525H1697.3V26.885H1684.52V24.68H1703.37V15.5H1674.8V47H1703.46V37.82ZM1738.63 24.68V15.5H1706.14V24.68H1717.52V47H1727.24V24.68H1738.63ZM1759.48 41.78L1761.5 47H1771.81L1759.07 15.5H1747.01L1734.28 47H1744.49L1746.52 41.78H1759.48ZM1755.97 32.6H1750.03L1753 24.905L1755.97 32.6Z" fill="white"/>
</svg>
